# xmcd
#
# Track frame offsets:
#  150
#  17684
#  36615
#  53648
#  70974
#  87513
#  101153
#  117535
#  134018
#  149659
#  164416
#  181318
#  196256
#  209168
#  228902
#  247782
#  263468
#  278296
#  292528
#  309553
#
# Disc length: 4341 seconds
#
# Revision: 0
# Processed by: cddbd v1.4PL0 Copyright (c) Steve Scherf et al.
# Submitted via: AltoMP3_Maker 3.0
#
DISCID=2710f314
DTITLE=Kenny Rogers - Kenny Rogers
DYEAR=1900
DGENRE=
TTITLE0=Lady
TTITLE1=She Believes In Me
TTITLE2=Love The World Away
TTITLE3=Crazy
TTITLE4=We've Got Tonight
TTITLE5=What Are We Doin' In Love
TTITLE6=Don't Fall In Love With A Dreamer
TTITLE7=You Decorated My Life
TTITLE8=I Don't Need You
TTITLE9=A Love Song
TTITLE10=Desperado
TTITLE11=Till I Can Make It On My Own
TTITLE12=You Are So Beautiful
TTITLE13=Through The Years
TTITLE14=Islands In The Stream
TTITLE15=What I Did For Love
TTITLE16=Share Your Love With Me
TTITLE17=Daytime Friends
TTITLE18=Love Lifted Me
TTITLE19=Lucille
EXTD=
EXTT0=
EXTT1=
EXTT2=
EXTT3=
EXTT4=
EXTT5=
EXTT6=
EXTT7=
EXTT8=
EXTT9=
EXTT10=
EXTT11=
EXTT12=
EXTT13=
EXTT14=
EXTT15=
EXTT16=
EXTT17=
EXTT18=
EXTT19=
PLAYORDER=
